<?xml version="1.0" encoding="utf-8"?>
<!-- Generator: Adobe Illustrator 27.4.1, SVG Export Plug-In . SVG Version: 6.00 Build 0)  -->
<svg version="1.1" id="Layer_1" xmlns="http://www.w3.org/2000/svg" xmlns:xlink="http://www.w3.org/1999/xlink" x="0px" y="0px"
	 viewBox="0 0 1405.07 206.24" style="enable-background:new 0 0 1405.07 206.24;" xml:space="preserve">
<style type="text/css">
	.st0{fill-rule:evenodd;clip-rule:evenodd;fill:#123B6A;}
</style>
<g id="Group">
	<g id="Text_1_">
		<path d="M463.06,77.89c0,25.56-19.17,41.45-49.8,41.45h-23.1v31.62h-26.54V36.28h49.64C443.9,36.28,463.06,52.17,463.06,77.89z
			 M436.2,77.89c0-12.61-8.19-19.99-24.41-19.99h-21.62v39.81h21.62C428.01,97.71,436.2,90.34,436.2,77.89z"/>
		<path d="M583.8,36.28v114.68h-26.54v-47.02h-52.1v47.02h-26.54V36.28h26.54v45.22h52.1V36.28H583.8z"/>
		<path d="M607.72,36.28h52.1c37.52,0,63.24,22.61,63.24,57.34s-25.72,57.34-63.24,57.34h-52.1V36.28z M658.51,129.17
			c22.77,0,37.68-13.6,37.68-35.55c0-21.95-14.91-35.55-37.68-35.55h-24.25v71.1H658.51z"/>
		<path d="M799.28,46.76h-40.3V36.28h92.73v10.48h-40.3v104.19h-12.12V46.76z"/>
		<path d="M925.86,111.47h-72.08c1.31,18.02,15.07,29.98,33.91,29.98c10.48,0,19.82-3.77,26.38-11.3l6.55,7.54
			c-7.7,9.17-19.66,14.09-33.26,14.09c-26.87,0-45.22-18.35-45.22-43.91s17.86-43.74,42.1-43.74c24.25,0,41.78,17.86,41.78,43.74
			C926.03,108.85,925.86,110.16,925.86,111.47z M853.78,102.79h61.11c-1.47-16.87-13.76-28.67-30.64-28.67
			C867.54,74.12,855.25,85.92,853.78,102.79z"/>
		<path d="M972.99,107.7l-20.31,18.68v24.57h-11.63V29.4h11.63v82.4l51.44-47.02h14.42L981.67,100l40.3,50.95h-14.25L972.99,107.7z"
			/>
		<path d="M1108.74,100.99v49.97h-11.63v-48.82c0-18.18-9.5-27.52-25.88-27.52c-18.51,0-30.14,11.47-30.14,31.13v45.22h-11.63V64.78
			h11.14v15.89c6.23-10.48,17.86-16.55,32.77-16.55C1094.33,64.13,1108.74,76.25,1108.74,100.99z"/>
		<path d="M1123.27,107.87c0-25.56,18.68-43.74,43.91-43.74c25.23,0,43.74,18.18,43.74,43.74s-18.51,43.91-43.74,43.91
			C1141.94,151.77,1123.27,133.43,1123.27,107.87z M1199.12,107.87c0-20.15-13.6-33.58-31.95-33.58s-32.11,13.43-32.11,33.58
			c0,20.15,13.76,33.58,32.11,33.58S1199.12,128.02,1199.12,107.87z"/>
		<path d="M1225.93,29.4h11.63v121.56h-11.63V29.4z"/>
		<path d="M1252.58,107.87c0-25.56,18.68-43.74,43.91-43.74c25.23,0,43.74,18.18,43.74,43.74s-18.51,43.91-43.74,43.91
			C1271.25,151.77,1252.58,133.43,1252.58,107.87z M1328.43,107.87c0-20.15-13.6-33.58-31.95-33.58s-32.11,13.43-32.11,33.58
			c0,20.15,13.76,33.58,32.11,33.58S1328.43,128.02,1328.43,107.87z"/>
		<path d="M1324.28,177.99l4.1-8.85c3.44,2.95,8.03,4.42,13.43,4.42c9.17,0,14.25-5.57,14.25-16.22V64.78h11.63v92.56
			c0,15.89-8.85,26.21-25.23,26.21C1335.58,183.56,1328.54,181.75,1324.28,177.99z M1353.44,37.59c0-4.42,3.77-8.19,8.52-8.19
			c4.75,0,8.52,3.6,8.52,8.03c0,4.75-3.6,8.52-8.52,8.52C1357.21,45.94,1353.44,42.17,1353.44,37.59z"/>
		<path d="M1389.34,37.26c0-4.42,3.44-7.86,7.86-7.86c4.42,0,7.86,3.44,7.86,7.86s-3.44,7.86-7.86,7.86
			C1392.78,45.12,1389.34,41.68,1389.34,37.26z M1391.31,64.13h11.63v86.83l-11.63,0.82V64.13z"/>
	</g>
	<g id="Cap_1_">
		<path id="_x33__2_" class="st0" d="M22.39,132.63c-1.45,0.71-3.07,1.11-4.79,1.11c-1.79,0-3.47-0.43-4.96-1.19
			c-10.45,8.12-4.78,22.47-0.91,31.63c3.99,9.45,1.8,19.32,1.8,19.32C38.26,155.17,25.69,136.61,22.39,132.63z"/>
		<circle id="_x32_" class="st0" cx="17.6" cy="122.82" r="5.46"/>
		<path id="_x31__1_" class="st0" d="M20.87,112.4V71.56l-6.55-2.17v43.01c1.03-0.33,2.14-0.5,3.28-0.5
			C18.74,111.89,19.83,112.07,20.87,112.4z"/>
		<g id="Cap">
			<path id="_x33__1_" class="st0" d="M242.34,174.48l-90.23,30.68c-2.12,0.72-4.9,1.08-7.68,1.08c-2.79,0-5.56-0.35-7.68-1.08
				l-90.23-30.68c-4.25-1.44-4.25-3.78,0-5.22l42.86-14.57l47.37,16.1c2.12,0.72,4.9,1.08,7.68,1.08c2.79,0,5.56-0.36,7.68-1.08
				l47.37-16.1l42.86,14.57C246.59,170.69,246.59,173.04,242.34,174.48z"/>
			<path id="_x32__1_" class="st0" d="M242.34,120.47l-43.83,14.9l-46.4,15.78c-2.12,0.72-4.9,1.08-7.68,1.08
				c-2.78,0-5.56-0.36-7.68-1.08l-46.4-15.78l-43.83-14.9c-4.25-1.45-4.25-3.78,0-5.23l42.86-14.57l47.37,16.11
				c2.12,0.72,4.9,1.08,7.68,1.08c2.78,0,5.56-0.36,7.68-1.08l47.37-16.11l42.86,14.57C246.59,116.68,246.59,119.02,242.34,120.47z"
				/>
			<path id="_x31_" class="st0" d="M284.3,52.84l-128.9,43.82c-3.03,1.03-7.01,1.55-10.98,1.55c-3.98,0-7.95-0.52-10.98-1.55
				L4.55,52.84c-6.06-2.06-6.06-5.4,0-7.46l128.9-43.82C136.47,0.52,140.45,0,144.42,0c3.98,0,7.95,0.52,10.98,1.55l128.9,43.82
				C290.36,47.44,290.36,50.77,284.3,52.84z"/>
		</g>
	</g>
</g>
</svg>
